<svg width="1920" height="1080" viewBox="0 0 1920 1080" fill="none" xmlns="http://www.w3.org/2000/svg">
<g clip-path="url(#clip0_147_222)">
<path d="M4707.07 -2254H-4064V3398H5984V-2254H4707.07ZM1243.89 630.326L1297.34 630.331L1297.55 631.869C1302.19 658.596 1326.49 679.142 1360.07 679.142C1398.06 679.142 1424.34 653.075 1424.34 615.751V615.311C1424.34 578.861 1397.62 552.794 1360.29 552.794C1342.18 552.794 1326.49 558.32 1314.34 568.478C1308.38 573.335 1303.07 579.52 1299.31 586.585H1249.61L1264.86 401.257H1460.56V447.866H1310.36L1301.52 543.95H1302.63C1316.55 522.53 1342.82 509.933 1374.86 509.933C1435.6 509.933 1479.34 553.893 1479.34 614.416V614.856C1479.34 680.456 1430.08 725.52 1359.62 725.52C1293.36 725.52 1248.3 685.998 1244.11 633.204L1243.89 630.326ZM1132.77 493.39L1040.88 720.02H1002.22L910.336 493.39H908.797V720.02H857.327V401.273H923.152L1020.78 644.686H1022.32L1119.95 401.273H1185.77V720.02H1134.54V493.39H1132.77ZM642.431 325.029C658.01 306.701 683.989 293.027 705.592 292.216C706.142 294.67 706.409 297.684 706.409 300.694C706.409 322.846 696.837 344.989 683.712 360.851C669.226 378.351 644.885 391.476 625.475 391.476V391.466C623.282 391.466 621.095 391.194 619.734 390.916C619.462 389.823 618.917 386.536 618.917 383.265C618.917 360.851 630.133 338.97 642.431 325.029ZM623.293 415.795C639.966 415.795 666.494 396.108 699.029 396.108C711.061 396.108 755.078 397.201 784.061 438.759C781.606 440.669 737.851 465.554 737.851 520.787C737.851 584.497 793.35 607.194 795.271 607.728C794.721 609.089 786.243 638.621 765.739 668.702C747.422 694.952 728.007 721.747 699.024 721.747C670.042 721.747 662.113 704.524 628.479 704.524C594.844 704.524 583.634 722.296 557.117 722.296C530.6 722.296 511.728 697.689 490.402 667.613C465.518 632.074 445.286 577.118 445.286 525.167C445.286 441.496 499.692 397.201 553.286 397.201C581.442 397.201 605.238 415.795 623.282 415.795H623.293Z" fill="black"/>
</g>
<defs>
<clipPath id="clip0_147_222">
<rect width="1920" height="1080" fill="white"/>
</clipPath>
</defs>
</svg>
